<svg width="94" height="28" viewBox="0 0 94 28" fill="none" xmlns="http://www.w3.org/2000/svg">
<path fill-rule="evenodd" clip-rule="evenodd" d="M35.7513 2H33.4258C33.1976 2.00186 32.9721 2.04679 32.762 2.13223C32.5519 2.21766 32.3614 2.34193 32.2015 2.49793C32.0415 2.65394 31.9151 2.83862 31.8296 3.04144C31.7441 3.24426 31.7011 3.46124 31.703 3.68V24.2418C31.6996 24.6833 31.8791 25.108 32.2021 25.4227C32.5252 25.7374 32.9653 25.9162 33.4258 25.92H35.7513C36.2115 25.9158 36.6512 25.7367 36.9738 25.4221C37.2964 25.1074 37.4757 24.683 37.4722 24.2418V3.68C37.4762 3.23851 37.2971 2.81357 36.9745 2.49856C36.6518 2.18354 36.2118 2.00422 35.7513 2ZM12.5077 4.016L2.46398 20.9849C1.14547 23.2142 2.79408 26 5.4311 26H20.7581L17.9338 21.2267H8.86182L15.1057 10.6738L21.3497 21.2267L24.174 26H30.7165L17.7038 4.016C17.4475 3.57055 17.0713 3.19914 16.6143 2.94049C16.1574 2.68183 15.6364 2.5454 15.1057 2.5454C14.5751 2.5454 14.0541 2.68183 13.5972 2.94049C13.1402 3.19914 12.764 3.57055 12.5077 4.016Z" fill="#FF8900"/>
<path d="M63.5557 2H58.8102V13.6H63.5557V2ZM49.067 9.79733L55.5575 13.3227L57.7476 9.94489L51.1439 6.496C51.6897 5.19038 51.9668 3.79586 51.9599 2.38933L47.2144 2.11022C47.2156 3.37436 46.9176 4.62228 46.3428 5.76C45.8142 6.80847 45.0166 7.71114 44.0248 8.38339C43.0329 9.05565 41.8792 9.47548 40.6719 9.60356V13.6924C42.2911 13.6294 43.8787 13.2418 45.3321 12.5547C46.7554 11.8819 48.0249 10.9446 49.067 9.79733V9.79733ZM46.8212 21.5093H63.5557V14.432H42.0757V17.68H58.8659V18.624H42.1313V25.6996H63.808V22.4533H46.8212V21.5093ZM86.4693 16.6382C84.5036 15.7979 81.8826 15.3772 78.6064 15.376C75.3302 15.3748 72.7093 15.7956 70.7436 16.6382C68.7779 17.4809 67.795 18.8273 67.795 20.6773C67.795 22.5274 68.7779 23.8732 70.7436 24.7147C72.7093 25.5561 75.3302 25.9769 78.6064 25.9769C81.8826 25.9769 84.5036 25.5561 86.4693 24.7147C88.435 23.872 89.4179 22.5262 89.4179 20.6773C89.4179 18.8284 88.435 17.4821 86.4693 16.6382V16.6382ZM82.7493 21.856C81.7095 22.1073 80.3286 22.2323 78.6064 22.2311C76.8843 22.2299 75.5039 22.1049 74.4655 21.856C73.4257 21.6071 72.9059 21.2142 72.9059 20.6773C72.9059 20.1404 73.4301 19.7517 74.4784 19.5111C75.5268 19.2516 76.9028 19.1218 78.6064 19.1218C80.3101 19.1218 81.686 19.2516 82.7344 19.5111C83.7828 19.7707 84.307 20.1594 84.307 20.6773C84.307 21.2142 83.7878 21.6071 82.7493 21.856V21.856ZM75.2091 10.992L81.186 14.4053L83.4113 10.9351L77.1229 7.49511C77.2435 7.05835 77.3279 6.6131 77.3751 6.16356H82.5675V2.27733H67.2906V6.16356H72.5702C72.3959 6.95144 72.0564 7.69717 71.5725 8.35556C71.0645 9.04968 70.4028 9.62761 69.6346 10.048C68.8156 10.4984 67.8963 10.755 66.9531 10.7964V14.9049C68.5718 14.8789 70.1623 14.4944 71.6003 13.7813C72.9912 13.1003 74.2199 12.1506 75.2091 10.992V10.992ZM89.1935 5.63556V2H84.4479V15.0436H89.1935V10.1031H92.0011V5.63556H89.1935Z" fill="#41414F"/>
</svg>
