<svg width="24" height="24" viewBox="0 0 24 24" fill="none" xmlns="http://www.w3.org/2000/svg">
<g clip-path="url(#clip0_306_27409)">
<path fill-rule="evenodd" clip-rule="evenodd" d="M10.4751 16.4621C13.7816 16.4621 16.4621 13.7816 16.4621 10.4751C16.4621 7.16863 13.7816 4.48818 10.4751 4.48818C7.16863 4.48818 4.48818 7.16863 4.48818 10.4751C4.48818 13.7816 7.16863 16.4621 10.4751 16.4621ZM10.4751 17.9502C14.6035 17.9502 17.9502 14.6035 17.9502 10.4751C17.9502 6.34673 14.6035 3 10.4751 3C6.34673 3 3 6.34673 3 10.4751C3 14.6035 6.34673 17.9502 10.4751 17.9502Z" fill="white"/>
<path fill-rule="evenodd" clip-rule="evenodd" d="M15.1039 15.1109C15.3615 14.8533 15.7779 14.8521 16.034 15.1083L20.3923 19.4665C20.6484 19.7226 20.6472 20.139 20.3896 20.3966C20.1321 20.6542 19.7156 20.6554 19.4595 20.3993L15.1013 16.041C14.8452 15.7849 14.8463 15.3685 15.1039 15.1109Z" fill="white"/>
<path fill-rule="evenodd" clip-rule="evenodd" d="M15.0338 15.0404C15.3297 14.7445 15.809 14.7426 16.1042 15.0378L20.4625 19.396C20.7577 19.6913 20.7557 20.1705 20.4598 20.4665C20.1638 20.7624 19.6846 20.7644 19.3894 20.4691L15.0311 16.1109C14.7359 15.8156 14.7378 15.3364 15.0338 15.0404ZM15.9639 15.1781C15.7469 14.9611 15.3933 14.9615 15.1741 15.1808C14.9549 15.4 14.9544 15.7536 15.1714 15.9706L19.5297 20.3288C19.7467 20.5458 20.1003 20.5454 20.3195 20.3262C20.5387 20.1069 20.5391 19.7533 20.3221 19.5364L15.9639 15.1781Z" fill="white"/>
</g>
<defs>
<clipPath id="clip0_306_27409">
<rect width="24" height="24" fill="white"/>
</clipPath>
</defs>
</svg>
